Jump_normalized_pl07_filtered_grf
version=1
nRows=27
nColumns=37
inDegrees=yes
endheader
time		1_ground_force_vx		1_ground_force_vy		1_ground_force_vz		1_ground_force_px		1_ground_force_py		1_ground_force_pz		1_ground_torque_x		1_ground_torque_y		1_ground_torque_z		2_ground_force_vx		2_ground_force_vy		2_ground_force_vz		2_ground_force_px		2_ground_force_py		2_ground_force_pz		2_ground_torque_x		2_ground_torque_y		2_ground_torque_z		3_ground_force_vx		3_ground_force_vy		3_ground_force_vz		3_ground_force_px		3_ground_force_py		3_ground_force_pz		3_ground_torque_x		3_ground_torque_y		3_ground_torque_z		4_ground_force_vx		4_ground_force_vy		4_ground_force_vz		4_ground_force_px		4_ground_force_py		4_ground_force_pz		4_ground_torque_x		4_ground_torque_y		4_ground_torque_z		
0.004500		0.000000		-0.000000		-0.000000		0.137786		0.000000		0.235046		-0.000000		-0.000000		0.000000		-0.000000		-0.000000		-0.000000		-0.149475		0.000000		0.264626		-0.000000		0.000000		-0.000000		3.358620		289.062439		300.031587		0.374612		1.308395		1.915229		-0.157490		-13.554490		-14.068846		-8.893187		496.481099		367.269118		-0.266091		1.308954		1.927477		-0.348333		19.446427		14.385386		
0.006141		0.000000		-0.000000		-0.000000		0.137786		0.000000		0.235046		-0.000000		-0.000000		0.000000		-0.000000		-0.000000		-0.000000		-0.149475		0.000000		0.264626		-0.000000		0.000000		-0.000000		3.285006		289.260004		303.987763		0.374588		1.308394		1.915286		-0.154409		-13.596491		-14.288769		-9.310869		495.330551		370.180243		-0.266091		1.308949		1.927525		-0.365814		19.460982		14.543975		
0.007783		0.000000		-0.000000		-0.000000		0.137786		0.000000		0.235046		-0.000000		-0.000000		0.000000		0.000000		-0.000000		-0.000000		-0.149475		0.000000		0.264626		-0.000000		0.000000		-0.000000		3.207721		289.374582		308.099852		0.374566		1.308395		1.915344		-0.151162		-13.636629		-14.519059		-9.686227		494.060432		373.101048		-0.266091		1.308945		1.927575		-0.381587		19.463385		14.698230		
0.009424		0.000000		-0.000000		-0.000000		0.137786		0.000000		0.235046		-0.000000		-0.000000		0.000000		0.000000		-0.000000		-0.000000		-0.149475		0.000000		0.264626		-0.000000		0.000000		-0.000000		3.142982		289.372281		312.294966		0.374548		1.308397		1.915403		-0.148511		-13.673290		-14.756429		-10.008670		492.668591		375.999760		-0.266090		1.308942		1.927628		-0.395188		19.452824		14.846206		
0.011066		0.000000		-0.000000		-0.000000		0.137786		0.000000		0.235046		-0.000000		-0.000000		0.000000		0.000000		-0.000000		-0.000000		-0.149475		0.000000		0.264626		-0.000000		0.000000		-0.000000		3.105326		289.214247		316.500967		0.374533		1.308401		1.915464		-0.147150		-13.704856		-14.997886		-10.272542		491.149415		378.858481		-0.266089		1.308941		1.927682		-0.406360		19.428841		14.986850		
0.012707		-0.000000		-0.000000		0.000000		0.137786		0.000000		0.235046		-0.000000		0.000000		0.000000		0.000000		-0.000000		-0.000000		-0.149475		0.000000		0.264626		-0.000000		0.000000		-0.000000		3.107025		288.862460		320.646894		0.374522		1.308407		1.915527		-0.147680		-13.729899		-15.240657		-10.477124		489.496993		381.672800		-0.266087		1.308940		1.927739		-0.415056		19.391635		15.120138		
0.014348		-0.000000		0.000000		0.000000		0.137786		0.000000		0.235046		0.000000		0.000000		-0.000000		0.000000		0.000000		0.000000		-0.149475		0.000000		0.264626		0.000000		-0.000000		0.000000		3.153856		288.288609		324.665734		0.374514		1.308417		1.915593		-0.150397		-13.747481		-15.482195		-10.614773		487.711625		384.443460		-0.266083		1.308941		1.927799		-0.420974		19.342255		15.246725		
0.015990		-0.000000		0.000000		0.000000		0.137786		0.000000		0.235046		0.000000		0.000000		-0.000000		0.000000		0.000000		0.000000		-0.149475		0.000000		0.264626		0.000000		-0.000000		0.000000		3.251025		287.462982		328.498903		0.374508		1.308429		1.915661		-0.155579		-13.756619		-15.720405		-10.689351		485.786031		387.183937		-0.266079		1.308942		1.927862		-0.424279		19.281700		15.368010		
0.017631		-0.000000		0.000000		0.000000		0.137786		0.000000		0.235046		0.000000		0.000000		-0.000000		0.000000		0.000000		0.000000		-0.149475		0.000000		0.264626		0.000000		-0.000000		0.000000		3.401025		286.354671		332.086037		0.374504		1.308442		1.915731		-0.163384		-13.756245		-15.953160		-10.701959		483.710794		389.909022		-0.266073		1.308944		1.927925		-0.425039		19.211054		15.485624		
0.019273		-0.000000		0.000000		0.000000		0.137786		0.000000		0.235046		0.000000		0.000000		-0.000000		0.000000		0.000000		0.000000		-0.149475		0.000000		0.264626		0.000000		-0.000000		0.000000		3.603562		284.956038		335.380942		0.374500		1.308460		1.915806		-0.173834		-13.746008		-16.178481		-10.650989		481.485580		392.632443		-0.266065		1.308946		1.927991		-0.423221		19.132044		15.601427		
0.020914		-0.000000		0.000000		0.000000		0.137786		0.000000		0.235046		0.000000		0.000000		-0.000000		0.000000		0.000000		0.000000		-0.149475		0.000000		0.264626		0.000000		-0.000000		0.000000		3.859492		283.256497		338.343623		0.374495		1.308479		1.915884		-0.187013		-13.725221		-16.394487		-10.545760		479.104182		395.369214		-0.266057		1.308948		1.928057		-0.419229		19.045980		15.717238		
0.022556		-0.000000		0.000000		0.000000		0.137786		0.000000		0.235046		0.000000		0.000000		-0.000000		0.000000		0.000000		0.000000		-0.149475		0.000000		0.264626		0.000000		-0.000000		0.000000		4.164504		281.248494		340.935498		0.374489		1.308501		1.915964		-0.202758		-13.693104		-16.599087		-10.389994		476.562256		398.127373		-0.266046		1.308950		1.928122		-0.413236		18.954077		15.834525		
0.024197		-0.000000		0.000000		0.000000		0.137786		0.000000		0.235046		0.000000		0.000000		-0.000000		-0.000000		0.000000		0.000000		-0.149475		0.000000		0.264626		0.000000		-0.000000		0.000000		4.533336		278.940937		343.118309		0.374479		1.308527		1.916049		-0.221831		-13.649381		-16.789792		-10.188107		473.856799		400.910916		-0.266032		1.308951		1.928186		-0.405441		18.857362		15.954448		
0.025838		-0.000000		0.000000		0.000000		0.137786		0.000000		0.235046		0.000000		0.000000		-0.000000		-0.000000		0.000000		0.000000		-0.149475		0.000000		0.264626		0.000000		-0.000000		0.000000		4.957685		276.343730		344.879978		0.374466		1.308556		1.916137		-0.243875		-13.593576		-16.964957		-9.948790		470.991234		403.716621		-0.266017		1.308953		1.928249		-0.396200		18.756747		16.077607		
0.027480		-0.000000		0.000000		0.000000		0.137786		0.000000		0.235046		0.000000		0.000000		-0.000000		-0.000000		0.000000		0.000000		-0.149475		0.000000		0.264626		0.000000		-0.000000		0.000000		5.433448		273.470490		346.207074		0.374451		1.308588		1.916229		-0.268729		-13.525337		-17.122757		-9.676701		467.968289		406.537425		-0.265999		1.308954		1.928310		-0.385705		18.652819		16.204238		
0.029121		0.000000		0.000000		-0.000000		0.137786		0.000000		0.235046		0.000000		-0.000000		-0.000000		-0.000000		-0.000000		0.000000		-0.149475		0.000000		0.264626		0.000000		0.000000		0.000000		5.991970		270.345648		347.074505		0.374433		1.308627		1.916325		-0.297995		-13.444794		-17.260686		-9.378796		464.789159		409.363027		-0.265980		1.308955		1.928367		-0.374230		18.545916		16.334319		
0.030763		0.000000		-0.000000		-0.000000		0.137786		0.000000		0.235046		-0.000000		-0.000000		0.000000		-0.000000		-0.000000		-0.000000		-0.149475		0.000000		0.264626		-0.000000		0.000000		-0.000000		6.605012		266.987867		347.501016		0.374414		1.308670		1.916423		-0.330315		-13.351812		-17.378229		-9.059519		461.463453		412.181011		-0.265957		1.308957		1.928421		-0.361946		18.436382		16.467457		
0.032404		0.000000		-0.000000		-0.000000		0.137786		0.000000		0.235046		-0.000000		-0.000000		0.000000		-0.000000		-0.000000		-0.000000		-0.149475		0.000000		0.264626		-0.000000		0.000000		-0.000000		7.272812		263.425614		347.497110		0.374394		1.308717		1.916523		-0.365730		-13.246848		-17.474558		-8.723775		457.998425		414.980721		-0.265934		1.308959		1.928474		-0.349036		18.324413		16.603289		
0.034045		0.000000		-0.000000		-0.000000		0.137786		0.000000		0.235046		-0.000000		-0.000000		0.000000		-0.000000		-0.000000		-0.000000		-0.149475		0.000000		0.264626		-0.000000		0.000000		-0.000000		8.015687		259.692372		347.070848		0.374379		1.308773		1.916624		-0.405294		-13.130672		-17.548749		-8.378819		454.401260		417.751722		-0.265909		1.308963		1.928520		-0.180532		13.144954		22.231833		
0.035687		0.000000		-0.000000		-0.000000		0.137786		0.000000		0.235046		-0.000000		-0.000000		0.000000		-0.000000		-0.000000		-0.000000		-0.149475		0.000000		0.264626		-0.000000		0.000000		-0.000000		8.796392		255.808022		346.249290		0.374365		1.308832		1.916723		-0.447151		-13.003424		-17.600828		-8.026254		450.677071		420.488533		-0.265884		1.308967		1.928566		1.419058		-37.934716		76.966310		
0.037328		0.000000		-0.000000		-0.000000		0.137786		0.000000		0.235046		-0.000000		-0.000000		0.000000		-0.000000		-0.000000		-0.000000		-0.149475		0.000000		0.264626		-0.000000		0.000000		-0.000000		9.612916		251.808491		345.063735		0.374356		1.308895		1.916822		-0.491180		-12.866227		-17.631153		-7.670827		446.834848		423.188471		-0.265858		1.308973		1.928608		1.477019		-38.477560		76.664771		
0.038970		0.000000		-0.000000		-0.000000		0.137786		0.000000		0.235046		-0.000000		-0.000000		0.000000		-0.000000		-0.000000		-0.000000		-0.149475		0.000000		0.264626		-0.000000		0.000000		-0.000000		10.461033		247.724119		343.541219		0.374358		1.308964		1.916915		-0.537146		-12.719940		-17.639885		-7.317657		442.881275		425.850142		-0.265833		1.308980		1.928646		1.532493		-39.016221		76.347958		
0.040611		0.000000		-0.000000		-0.000000		0.137786		0.000000		0.235046		-0.000000		-0.000000		0.000000		0.000000		-0.000000		-0.000000		-0.149475		0.000000		0.264626		-0.000000		0.000000		-0.000000		11.308399		243.579211		341.706162		0.374365		1.309035		1.917007		-0.583348		-12.565053		-17.626953		-6.966884		438.818721		428.474955		-0.265809		1.308988		1.928682		1.586261		-39.551143		76.017014		
0.042253		0.000000		-0.000000		-0.000000		0.137786		0.000000		0.235046		-0.000000		-0.000000		0.000000		0.000000		-0.000000		-0.000000		-0.149475		0.000000		0.264626		-0.000000		0.000000		-0.000000		12.146046		239.403234		339.587293		0.374380		1.309108		1.917094		-0.629247		-12.402594		-17.592777		-6.622118		434.654936		431.064391		-0.265786		1.308998		1.928718		1.638465		-40.082687		75.673692		
0.043894		0.000000		-0.000000		-0.000000		0.137786		0.000000		0.235046		-0.000000		-0.000000		0.000000		0.000000		-0.000000		-0.000000		-0.149475		0.000000		0.264626		-0.000000		0.000000		-0.000000		12.954839		235.216000		337.209404		0.374405		1.309184		1.917176		-0.673761		-12.233164		-17.537669		-6.284859		430.397854		433.618122		-0.265767		1.309008		1.928750		1.689515		-40.610928		75.319533		
0.045535		-0.000000		0.000000		0.000000		0.137786		0.000000		0.235046		0.000000		0.000000		-0.000000		0.000000		0.000000		-0.000000		-0.149475		0.000000		0.264626		0.000000		-0.000000		0.000000		13.717960		231.038026		334.584921		0.374436		1.309260		1.917255		-0.715916		-12.057460		-17.461390		-5.956566		426.053160		436.136111		-0.265750		1.309020		1.928782		1.739741		-41.136057		74.955598		
0.047177		-0.000000		0.000000		0.000000		0.137786		0.000000		0.235046		0.000000		0.000000		-0.000000		0.000000		0.000000		0.000000		-0.149475		0.000000		0.264626		0.000000		-0.000000		0.000000		14.422695		226.881427		331.720786		0.374472		1.309336		1.917330		-0.754943		-11.875861		-17.363573		-5.639989		421.629724		438.614158		-0.265734		1.309032		1.928813		1.789260		-41.657577		74.582954		
